<?xml version="1.0" encoding="UTF-8" standalone="no"?>
<!-- Created with Inkscape (http://www.inkscape.org/) -->

<svg
   xmlns:dc="http://purl.org/dc/elements/1.1/"
   xmlns:cc="http://creativecommons.org/ns#"
   xmlns:rdf="http://www.w3.org/1999/02/22-rdf-syntax-ns#"
   xmlns:svg="http://www.w3.org/2000/svg"
   xmlns="http://www.w3.org/2000/svg"
   xmlns:sodipodi="http://sodipodi.sourceforge.net/DTD/sodipodi-0.dtd"
   xmlns:inkscape="http://www.inkscape.org/namespaces/inkscape"
   width="364.38168"
   height="455.10284"
   id="svg2"
   version="1.1"
   inkscape:version="0.48.4 r9939"
   sodipodi:docname="minas_tenis_clube-crest.svg">
  <defs
     id="defs4" />
  <sodipodi:namedview
     id="base"
     pagecolor="#ffffff"
     bordercolor="#666666"
     borderopacity="1.0"
     inkscape:pageopacity="0.0"
     inkscape:pageshadow="2"
     inkscape:zoom="1.4"
     inkscape:cx="201.50302"
     inkscape:cy="225.2743"
     inkscape:document-units="px"
     inkscape:current-layer="layer1"
     showgrid="true"
     inkscape:window-width="1920"
     inkscape:window-height="1120"
     inkscape:window-x="-4"
     inkscape:window-y="-4"
     inkscape:window-maximized="1"
     fit-margin-top="0"
     fit-margin-left="0"
     fit-margin-right="0"
     fit-margin-bottom="0"
     inkscape:snap-page="true">
    <inkscape:grid
       type="xygrid"
       id="grid3078"
       empspacing="5"
       visible="true"
       enabled="true"
       snapvisiblegridlinesonly="true"
       originx="-182.19084px"
       originy="-227.55143px" />
  </sodipodi:namedview>
  <metadata
     id="metadata7">
    <rdf:RDF>
      <cc:Work
         rdf:about="">
        <dc:format>image/svg+xml</dc:format>
        <dc:type
           rdf:resource="http://purl.org/dc/dcmitype/StillImage" />
        <dc:title></dc:title>
      </cc:Work>
    </rdf:RDF>
  </metadata>
  <g
     inkscape:label="Layer 1"
     inkscape:groupmode="layer"
     id="layer1"
     transform="translate(-188.83491,-284.89324)">
    <path
       style="color:#000000;fill:#ffffff;fill-opacity:1;fill-rule:nonzero;stroke:none;stroke-width:0.98994952;marker:none;visibility:visible;display:inline;overflow:visible;enable-background:accumulate"
       d="m 367.07867,733.08532 c -3.19364,-5.4064 -12.84152,-14.97606 -19.89725,-19.73596 -14.74719,-9.94862 -26.48963,-14.704 -62.30251,-25.23088 -33.55745,-9.86391 -36.00781,-10.70411 -47.61966,-16.32828 -12.86574,-6.23149 -21.842,-14.23871 -26.44679,-23.59168 l -3.25169,-6.60464 -0.49498,-139.1092 -0.49497,-139.1092 -6.68216,-15.76185 c -3.67519,-8.66903 -6.68216,-16.3002 -6.68216,-16.95816 0,-0.65797 14.06471,-9.98524 31.25491,-20.72728 l 31.2549,-19.53098 7.93818,7.93817 c 12.8597,12.8597 23.30762,16.99905 34.61186,13.71281 2.9401,-0.85471 11.84039,-4.65486 19.77847,-8.4448 7.93807,-3.78993 18.17818,-8.02704 22.7558,-9.41579 11.40667,-3.46055 27.25896,-4.81669 42.11535,-3.60289 18.59408,1.51918 29.8394,5.34982 50.59112,17.23354 4.22496,2.41947 9.53069,4.9413 11.79051,5.60406 9.4366,2.76758 19.1068,-1.9201 32.03322,-15.52824 5.80014,-6.10606 7.51101,-7.38764 8.79344,-6.58705 0.87572,0.54669 15.40201,9.37491 32.28065,19.61827 16.87864,10.24335 30.80449,18.70381 30.94633,18.801 0.14186,0.0972 -3.52722,8.4433 -8.15346,18.5469 l -8.41139,18.37017 -0.26109,137.9701 -0.26109,137.97008 -3.25169,6.60478 c -5.91208,12.00854 -20.42416,22.65898 -40.78826,29.9346 -4.0765,1.45644 -17.88629,5.77324 -30.68844,9.5929 -12.80214,3.81966 -27.50865,8.51871 -32.68113,10.44233 -21.23309,7.89643 -41.06214,20.0894 -51.23801,31.50648 l -4.79198,5.37647 -1.74603,-2.95578 z"
       id="path3109"
       inkscape:connector-curvature="0"
       sodipodi:nodetypes="csssscccssscsssssssssscscccsssssccc" />
    <path
       style="opacity:0.93999999;fill:#ffffff;fill-opacity:1;stroke:none"
       d="m 364.1402,732.24398 c -10.43019,-14.52377 -32.35653,-26.81323 -65.23826,-36.5653 -60.17714,-17.84734 -69.12072,-21.46774 -79.80553,-32.30564 -3.61351,-3.66529 -8.02837,-9.6239 -9.81081,-13.24139 l -3.24081,-6.57724 -2.20988,-143.55831 -0.26561,-139.01974 -7.04611,-17.14141 c -3.87536,-9.42777 -6.51985,-17.66766 -5.87665,-18.31086 0.6432,-0.6432 14.95609,-9.83605 31.80641,-20.42856 l 30.63695,-19.25911 8.64914,8.30533 c 18.03504,17.31813 27.71445,18.40097 53.90188,6.03003 24.51653,-11.58161 30.70869,-13.26006 51.83245,-14.04971 27.14588,-1.01477 43.73927,3.29336 67.73038,17.58479 16.45232,9.80059 25.03812,8.27081 41.22046,-7.3445 l 10.83687,-10.45714 30.82043,18.68554 c 16.95124,10.27704 31.65153,19.44146 32.66733,20.36537 1.4884,1.35377 0.30991,4.95091 -6.07143,18.53191 l -7.91833,16.85207 0,139.05356 c 0,138.8654 -0.005,139.06468 -3.07684,147.27717 -4.33842,11.59544 -14.53862,21.40533 -29.87774,28.73446 -6.62499,3.16545 -26.18828,10.06685 -43.47399,15.33645 -47.49654,14.47945 -66.73099,23.90115 -82.97083,40.64193 -3.82588,3.9439 -7.34574,7.17073 -7.82191,7.17073 -0.47617,0 -2.90509,-2.83968 -5.39757,-6.31043 z"
       id="path3057"
       inkscape:connector-curvature="0"
       sodipodi:nodetypes="sssscccssscssssscssscscsssss" />
    <path
       style="color:#000000;fill:#004677;fill-opacity:1;fill-rule:nonzero;stroke:none;stroke-width:2;marker:none;visibility:visible;display:inline;overflow:visible;enable-background:accumulate"
       d="m 203.59972,637.4961 0,-276.22906 -14.76481,-35.50107 64.85788,-40.557 c 43.64443,53.29592 53.61694,-0.92072 115.14212,-0.21287 77.13437,-2.91007 69.68031,57.35604 117.80651,0.21287 l 66.57518,40.557 c -4.59935,9.49792 -13.24652,28.44199 -16.88169,36.73013 l 0,275 c -7.5,62.5 -119.35503,41.32042 -167.5,102.5 -35.80447,-61.80544 -157.5,-40 -165.23519,-102.5 z m 165.23519,-125 -152.5,0 0,127.5 c 10,42.5 125.90068,41.64575 152.5,70 z m 55,175 0,-175 -25,0 0,185 c 3.86324,-1.0714 20,-7.5 25,-10 z m 50,-17.5 0,-157.5 -25,0 0,167.5 c 8.7206,-2.32493 20.26046,-7.23214 25,-10 z m 50,-157.5 -25,0 0,150 c 12.5,-5 22.5,-15 25,-22.5 z m -282.5,-205 -25,15 0,179.98884 25,0 z m 50,15 c -10,0 -17.5,-2.5 -25,-7.5 l 0,187.48884 25,0 z m 47.5,-20 c -7.5,0 -20,7.5 -22.5,10 l 0,189.98884 25,0 z m 185,57.5 c 0.16851,-10.8404 11.95991,-20.51964 14.99136,-28.42175 l -50.2219,-30.23636 c -53.44842,49.45107 -56.13973,-8.07018 -119.76946,-3.84189 0,68.57143 0.57912,136.41741 0.57912,204.98884 l 154.42088,0 z"
       id="path3974"
       inkscape:connector-curvature="0"
       sodipodi:nodetypes="ccccccccccccccccccccccccccccccccccccccccccccccccccccc" />
    <path
       style="color:#000000;fill:#004677;fill-opacity:1;fill-rule:nonzero;stroke:none;stroke-width:2;marker:none;visibility:visible;display:inline;overflow:visible;enable-background:accumulate"
       d="m 293.19118,592.8032 0,-5.35438 -17.11315,0 -16.28068,0 -0.12626,4.91244 -9.64155,0 0,-4.91244 -6.90503,0 0,-9.44693 6.90503,0 0,-31.88292 c 0.1583,-13.34275 14.13791,-21.46532 24.14136,-22.27422 11.22565,0.19081 22.82684,3.81311 24.14514,13.11917 1.80665,-9.12341 16.15331,-13.62254 19.67396,-13.11917 17.6176,-0.31356 25.79574,10.66936 27.50614,22.27422 l 0,31.88292 6.95389,0 0,9.44693 -6.95389,0 0,4.91244 -10.0865,0 0,-4.91244 -16.34819,0 -15.798,0 0,5.35438 c 18.36293,0.44286 26.24392,6.63431 36.14034,16.50754 l -5.69765,5.62499 c -8.39058,-5.97397 -17.04289,-14.73137 -30.44269,-14.73137 l 0,38.53656 -4.94741,0 -5.12486,0 0,-38.53656 c -22.55161,0.29146 -35.88941,18.28795 -35.28152,30.41808 0.79192,15.80225 18.20663,30.91356 40.40638,30.24437 11.09303,-0.33439 25.41935,-3.40363 35.3901,-14.88499 l 5.69765,5.58801 c -8.06089,8.21025 -18.60649,16.8341 -41.08775,16.91307 -23.91065,0.084 -48.82144,-14.92281 -48.84419,-37.86046 -0.0224,-22.6467 22.62682,-38.08372 43.71933,-37.81924 z m 42.21846,-46.68423 c 1.5304,-14.66892 -29.54294,-17.86717 -32.14619,0 l 0,14.14852 -4.94741,0 -5.12486,0 0,-14.14852 c -2.1117,-18.82515 -33.87583,-17.08733 -33.50478,0 0,10.2381 0,21.64483 0,31.88292 l 38.62964,0 37.0936,0 z"
       id="path4034"
       inkscape:connector-curvature="0"
       sodipodi:nodetypes="ccccccccccccccccccccccccccccccccssccsscccccccccccc" />
    <path
       style="color:#000000;fill:#004677;fill-opacity:1;fill-rule:nonzero;stroke:none;stroke-width:2;marker:none;visibility:visible;display:inline;overflow:visible;enable-background:accumulate"
       d="m 392.13688,473.9657 48.86875,-50.58145 -9.7922,-11.96149 c -15.2084,4.05004 -32.21325,-3.60679 -42.67255,-16.54292 -11.6406,-14.39721 -14.512,-36.0832 -3.88535,-48.38979 16.7376,-14.01614 41.8348,-3.22744 52.30805,15.30974 8.2835,14.66134 9.5645,30.29627 2.7346,42.34765 l 9.4157,9.42375 9.0332,-9.42375 c -7.93965,-14.33558 -5.4812,-30.08364 2.2306,-42.34765 11.39145,-18.11584 34.2454,-28.58527 51.97925,-15.30974 11.9719,12.87614 7.60945,34.19087 -3.49765,48.38979 -9.4207,12.04313 -24.42015,20.13461 -40.996,16.66919 l -10.69835,11.83522 47.85715,50.58145 -8.9286,8.76625 -46.9796,-51.32714 -48.82395,51.32714 z m 31.6307,-79.08586 -11.08765,0 0,9.97583 c 2.67305,2.42538 8.1395,2.11226 11.08765,2.11735 z m 60.48945,10.30747 0,-10.30747 -10.2171,0 0,12.09318 c 4.70785,0.0986 8.1501,-0.4127 10.2171,-1.78571 z m -76.3687,-10.30747 -12.28645,0 c 1.2316,1.94414 9.35955,8.27479 12.28645,8.26921 z m 29.54445,0 -0.1442,0 -7.12755,0 0,10.10256 c 3.82494,-1.56275 6.33589,-5.50907 7.27175,-10.10256 z m 30.4305,0 -7.35425,0 c 1.2261,4.47339 4.07452,8.40542 7.35425,10.28952 z m 34.07264,0 -10.89203,0 0,8.52175 c 3.43265,-1.31226 8.30618,-4.87919 10.89203,-8.52175 z m -94.04759,-16.48572 -12.2512,0 0,10.52794 12.2512,0 z m 15.87925,0 -11.08765,0 0,10.52794 11.08765,0 z m 13.6652,0 -7.27175,0 0,10.52794 8.7003,0 c 0.032,-3.75572 0.0866,-5.76211 -1.42855,-10.52794 z m 30.4305,0 -7.88996,0 c -0.90556,2.82712 -1.2627,7.07582 -0.53572,10.52794 l 8.42568,0 z m 16.39375,0 -10.2171,0 0,10.52794 10.2171,0 z m 17.67889,0 -10.89203,0 0,10.52794 10.89203,0 z m -110.48394,0 -5.5109,0 c 0.34635,3.08439 4.34615,9.61747 5.5109,10.52794 z m 121.7799,0 -6.83945,0 0,10.52794 c 3.20448,-2.47472 5.94325,-6.62026 6.83945,-10.52794 z m -121.7799,-16.59433 -7.59065,0 c -0.85197,3.9896 -0.87977,7.24641 0,10.70402 l 7.59065,0 z m 16.43635,10.70402 0,-10.70402 -12.2512,0 0,10.70402 z m 15.87925,-10.70402 -5.6205,0 -5.46715,0 0,10.70402 11.08765,0 c 0,-3.72024 0,-6.98378 0,-10.70402 z m 11.52235,10.70402 c -0.2122,-2.26784 -3.27875,-10.14435 -5.1289,-10.70402 l 0,10.70402 z m 32.57335,-10.70402 c -2.60291,2.59105 -6.204,7.15493 -7.35425,10.70402 l 7.35425,0 z m 16.39375,0 -10.2171,0 0,10.70402 10.2171,0 z m 17.67889,0 -10.89203,0 0,10.70402 10.89203,0 z m 12.54596,0 -8.08945,0 0,10.70402 8.08945,0 c 0.71429,-3.80162 0.625,-7.79526 0,-10.70402 z m -123.0299,-15.44822 c -3.25602,1.90725 -5.26555,5.72062 -5.7022,9.05671 l 5.7022,0 z m 16.43635,9.05671 0.0893,-10.48528 c -4.28212,-1.34749 -7.16999,-1.69381 -12.42977,-0.26786 l 0.0893,10.75314 z m 15.78735,0 c -4.5584,-5.04286 -4.98085,-5.88415 -10.99575,-9.05671 l 0,9.05671 z m 60.58135,-8.59682 c -2.97197,1.05967 -8.64043,5.38422 -10.2171,8.59682 l 10.2171,0 z m 17.67889,-1.07143 c -3.39665,-1.32583 -7.17973,-1.25186 -10.89203,-0.17857 l 0,9.84682 10.89203,0 z m 11.29596,9.66825 c -0.5855,-3.03368 -3.05395,-6.55123 -6.83945,-8.59682 l 0,8.59682 z"
       id="path4036"
       inkscape:connector-curvature="0"
       sodipodi:nodetypes="cccscscccscsccccccccccccccccccccccccccccccccccccccccccccccccccccccccccccccccccccccccccccccccccccccccccccccccccccccccccccccccccccccccccccccccccccccccc" />
  </g>
</svg>
